<?xml version="1.0" standalone="no"?>
<!DOCTYPE svg PUBLIC "-//W3C//DTD SVG 20010904//EN"
 "http://www.w3.org/TR/2001/REC-SVG-20010904/DTD/svg10.dtd">
<svg version="1.0" xmlns="http://www.w3.org/2000/svg"
 width="320.000000pt" height="320.000000pt" viewBox="0 0 320.000000 320.000000"
 preserveAspectRatio="xMidYMid meet">
<metadata>
Created by potrace 1.14, written by Peter Selinger 2001-2017
</metadata>
<g transform="translate(0.000000,320.000000) scale(0.100000,-0.100000)"
fill="#000000" stroke="none">
<path d="M1404 3144 c-10 -14 -20 -42 -23 -62 -6 -34 -9 -37 -51 -44 -56 -10
-78 -32 -94 -94 -11 -46 -14 -49 -47 -52 -73 -6 -109 -37 -109 -95 0 -13 -7
-32 -14 -43 -13 -19 -13 -25 4 -60 68 -138 2 -300 -151 -369 -50 -22 -77 -28
-138 -28 -42 0 -86 5 -98 11 -16 9 -40 9 -90 3 -79 -12 -113 -40 -113 -95 0
-42 -15 -56 -62 -56 -44 0 -88 -37 -88 -74 0 -52 -11 -66 -50 -66 -48 0 -83
-28 -98 -78 -19 -61 -15 -77 28 -116 59 -53 84 -49 114 18 28 62 87 125 148
158 36 19 58 23 133 23 78 0 97 -4 141 -27 126 -66 189 -203 162 -354 -8 -41
-8 -41 30 -52 51 -16 121 -77 143 -126 11 -24 19 -64 19 -97 0 -97 -38 -161
-126 -211 -30 -16 -54 -35 -54 -41 0 -21 38 -75 57 -80 10 -3 35 -8 56 -12 36
-6 37 -7 37 -46 0 -54 38 -93 100 -103 l45 -6 0 -46 c0 -38 5 -50 28 -70 16
-13 41 -24 57 -24 49 0 60 -9 60 -50 0 -30 6 -44 31 -64 17 -14 40 -26 52 -26
55 0 65 -9 64 -58 0 -39 4 -49 32 -74 19 -17 43 -28 60 -28 51 0 59 -8 54 -48
-4 -36 22 -91 33 -67 49 111 179 161 282 107 54 -28 74 -28 107 1 20 17 28 35
32 70 6 46 6 47 42 47 20 0 51 9 68 20 32 19 40 36 45 95 3 27 6 29 46 30 56
1 94 37 98 92 1 21 2 41 3 46 1 4 19 7 42 7 56 0 99 42 99 98 l0 39 52 6 c71
9 108 44 108 104 l0 43 44 0 c65 0 104 35 108 97 l3 47 41 1 c23 1 53 9 68 18
22 15 26 25 26 62 0 43 1 44 40 55 43 12 60 33 60 78 0 41 -37 72 -96 80 l-49
7 -5 52 c-3 28 -8 54 -10 56 -29 24 -60 37 -85 37 -42 0 -55 16 -55 65 0 50
-30 83 -82 91 -29 5 -38 2 -52 -17 -9 -13 -16 -33 -16 -45 0 -44 -10 -54 -56
-54 -49 0 -80 -22 -89 -65 -3 -14 -7 -36 -10 -50 -4 -20 -11 -25 -36 -25 -61
0 -109 -41 -109 -94 0 -45 -10 -56 -50 -56 -56 0 -88 -30 -96 -90 -7 -52 -12
-56 -69 -59 -43 -2 -76 -40 -82 -95 l-6 -46 -50 -6 c-57 -8 -97 -39 -97 -76 0
-13 -3 -33 -6 -46 -6 -22 -10 -23 -58 -17 -73 10 -86 19 -86 61 0 19 -5 44
-10 55 -12 21 -74 51 -93 44 -22 -8 -34 9 -41 62 -6 46 -4 52 13 58 34 10 61
54 61 96 l0 39 46 0 c62 0 104 40 104 99 l0 41 46 0 c59 0 104 40 104 92 0 45
15 58 67 58 77 0 118 70 77 129 -18 25 -27 25 -104 -4 -141 -53 -309 41 -340
190 l-11 55 -39 0 c-55 0 -91 -34 -99 -91 -6 -44 -6 -44 -55 -51 -60 -8 -83
-30 -100 -94 -10 -39 -17 -49 -32 -47 -33 4 -84 -18 -100 -42 -8 -13 -16 -37
-16 -54 -1 -35 -2 -35 -31 -19 -12 7 -42 17 -67 23 l-45 10 -3 52 c-3 44 -7
55 -32 73 -15 11 -37 20 -48 20 -39 0 -52 11 -52 46 0 34 1 34 44 34 62 0 96
30 103 92 l5 45 52 6 c67 8 106 48 106 107 0 36 3 40 24 40 70 0 116 44 116
109 l0 46 43 -3 c64 -5 95 23 99 91 3 51 4 52 33 50 43 -4 93 15 107 40 7 12
15 42 18 67 l5 45 40 -3 c84 -6 134 62 94 128 -17 27 -46 40 -114 52 -16 3
-21 13 -25 51 -7 59 -24 76 -92 91 l-53 12 -5 53 c-7 65 -33 91 -91 91 -30 0
-42 -5 -55 -26z"/>
</g>
</svg>
